<mxfile host="app.diagrams.net" modified="2023-09-08T20:38:58.975Z" agent="Mozilla/5.0 (Macintosh; Intel Mac OS X 10_15_7) AppleWebKit/537.36 (KHTML, like Gecko) Chrome/116.0.0.0 Safari/537.36" etag="VkiBLuutIfU8IpA0cag0" version="21.7.2" type="github" pages="3">
  <diagram name="artemis" id="QuPIXc7A5ROBVf-9lSRr">
    <mxGraphModel dx="708" dy="472" grid="1" gridSize="10" guides="1" tooltips="1" connect="1" arrows="1" fold="1" page="1" pageScale="1" pageWidth="850" pageHeight="1100" math="0" shadow="0">
      <root>
        <mxCell id="6bY6Thgxag4uqcN61ohY-0" />
        <mxCell id="6bY6Thgxag4uqcN61ohY-1" parent="6bY6Thgxag4uqcN61ohY-0" />
        <mxCell id="6bY6Thgxag4uqcN61ohY-2" value="" style="rounded=0;whiteSpace=wrap;html=1;" parent="6bY6Thgxag4uqcN61ohY-1" vertex="1">
          <mxGeometry x="200" y="200" width="480" height="300" as="geometry" />
        </mxCell>
        <mxCell id="6bY6Thgxag4uqcN61ohY-3" value="Artemis" style="text;html=1;strokeColor=none;fillColor=none;align=center;verticalAlign=middle;whiteSpace=wrap;rounded=0;fontStyle=1" parent="6bY6Thgxag4uqcN61ohY-1" vertex="1">
          <mxGeometry x="410" y="210" width="60" height="30" as="geometry" />
        </mxCell>
        <mxCell id="6bY6Thgxag4uqcN61ohY-4" value="Tutor" style="shape=umlActor;verticalLabelPosition=bottom;verticalAlign=top;html=1;outlineConnect=0;" parent="6bY6Thgxag4uqcN61ohY-1" vertex="1">
          <mxGeometry x="140" y="310" width="30" height="60" as="geometry" />
        </mxCell>
        <mxCell id="6bY6Thgxag4uqcN61ohY-5" style="rounded=0;orthogonalLoop=1;jettySize=auto;html=1;exitX=0;exitY=0.5;exitDx=0;exitDy=0;endArrow=none;endFill=0;" parent="6bY6Thgxag4uqcN61ohY-1" source="6bY6Thgxag4uqcN61ohY-6" edge="1">
          <mxGeometry relative="1" as="geometry">
            <mxPoint x="180" y="340" as="targetPoint" />
          </mxGeometry>
        </mxCell>
        <mxCell id="6bY6Thgxag4uqcN61ohY-6" value="View Submission" style="ellipse;whiteSpace=wrap;html=1;" parent="6bY6Thgxag4uqcN61ohY-1" vertex="1">
          <mxGeometry x="220" y="255" width="130" height="50" as="geometry" />
        </mxCell>
        <mxCell id="6bY6Thgxag4uqcN61ohY-7" value="Review Suggestions" style="ellipse;whiteSpace=wrap;html=1;fillColor=#e1d5e7;strokeColor=#9673a6;" parent="6bY6Thgxag4uqcN61ohY-1" vertex="1">
          <mxGeometry x="220" y="315" width="130" height="50" as="geometry" />
        </mxCell>
        <mxCell id="6bY6Thgxag4uqcN61ohY-8" value="Submit Assessment" style="ellipse;whiteSpace=wrap;html=1;" parent="6bY6Thgxag4uqcN61ohY-1" vertex="1">
          <mxGeometry x="220" y="375" width="130" height="50" as="geometry" />
        </mxCell>
        <mxCell id="6bY6Thgxag4uqcN61ohY-15" style="rounded=0;orthogonalLoop=1;jettySize=auto;html=1;exitX=0;exitY=0.5;exitDx=0;exitDy=0;endArrow=none;endFill=0;" parent="6bY6Thgxag4uqcN61ohY-1" source="6bY6Thgxag4uqcN61ohY-7" edge="1">
          <mxGeometry relative="1" as="geometry">
            <mxPoint x="180" y="340" as="targetPoint" />
            <mxPoint x="230" y="295" as="sourcePoint" />
          </mxGeometry>
        </mxCell>
        <mxCell id="6bY6Thgxag4uqcN61ohY-16" style="rounded=0;orthogonalLoop=1;jettySize=auto;html=1;exitX=0;exitY=0.5;exitDx=0;exitDy=0;endArrow=none;endFill=0;" parent="6bY6Thgxag4uqcN61ohY-1" source="6bY6Thgxag4uqcN61ohY-8" edge="1">
          <mxGeometry relative="1" as="geometry">
            <mxPoint x="180" y="340" as="targetPoint" />
            <mxPoint x="230" y="355" as="sourcePoint" />
          </mxGeometry>
        </mxCell>
        <mxCell id="6bY6Thgxag4uqcN61ohY-17" value="Athena" style="shape=umlActor;verticalLabelPosition=bottom;verticalAlign=top;html=1;outlineConnect=0;" parent="6bY6Thgxag4uqcN61ohY-1" vertex="1">
          <mxGeometry x="710" y="313" width="30" height="60" as="geometry" />
        </mxCell>
        <mxCell id="6bY6Thgxag4uqcN61ohY-18" style="edgeStyle=none;rounded=0;orthogonalLoop=1;jettySize=auto;html=1;exitX=1;exitY=0.5;exitDx=0;exitDy=0;endArrow=none;endFill=0;" parent="6bY6Thgxag4uqcN61ohY-1" source="6bY6Thgxag4uqcN61ohY-19" target="6bY6Thgxag4uqcN61ohY-17" edge="1">
          <mxGeometry relative="1" as="geometry" />
        </mxCell>
        <mxCell id="6bY6Thgxag4uqcN61ohY-19" value="Learn from past feedback" style="ellipse;whiteSpace=wrap;html=1;fillColor=#e1d5e7;strokeColor=#9673a6;" parent="6bY6Thgxag4uqcN61ohY-1" vertex="1">
          <mxGeometry x="535" y="318" width="130" height="50" as="geometry" />
        </mxCell>
        <mxCell id="QyCMkPuEmTv--lHedrac-0" style="edgeStyle=orthogonalEdgeStyle;rounded=0;orthogonalLoop=1;jettySize=auto;html=1;exitX=0;exitY=0.5;exitDx=0;exitDy=0;entryX=1;entryY=0.5;entryDx=0;entryDy=0;endArrow=block;endFill=0;endSize=16;" parent="6bY6Thgxag4uqcN61ohY-1" source="QyCMkPuEmTv--lHedrac-1" edge="1">
          <mxGeometry relative="1" as="geometry">
            <mxPoint x="350" y="340" as="targetPoint" />
            <Array as="points">
              <mxPoint x="390" y="280" />
              <mxPoint x="390" y="340" />
            </Array>
          </mxGeometry>
        </mxCell>
        <mxCell id="QyCMkPuEmTv--lHedrac-1" value="Accept Suggestion" style="ellipse;whiteSpace=wrap;html=1;fillColor=#e1d5e7;strokeColor=#9673a6;" parent="6bY6Thgxag4uqcN61ohY-1" vertex="1">
          <mxGeometry x="410" y="255" width="120" height="50" as="geometry" />
        </mxCell>
        <mxCell id="QyCMkPuEmTv--lHedrac-2" value="Modify Suggestion" style="ellipse;whiteSpace=wrap;html=1;fillColor=#e1d5e7;strokeColor=#9673a6;" parent="6bY6Thgxag4uqcN61ohY-1" vertex="1">
          <mxGeometry x="410" y="315" width="120" height="50" as="geometry" />
        </mxCell>
        <mxCell id="QyCMkPuEmTv--lHedrac-3" value="Discard Suggestion" style="ellipse;whiteSpace=wrap;html=1;fillColor=#e1d5e7;strokeColor=#9673a6;" parent="6bY6Thgxag4uqcN61ohY-1" vertex="1">
          <mxGeometry x="410" y="375" width="120" height="50" as="geometry" />
        </mxCell>
        <mxCell id="QyCMkPuEmTv--lHedrac-4" style="edgeStyle=orthogonalEdgeStyle;rounded=0;orthogonalLoop=1;jettySize=auto;html=1;exitX=0;exitY=0.5;exitDx=0;exitDy=0;entryX=1;entryY=0.5;entryDx=0;entryDy=0;endArrow=block;endFill=0;endSize=16;" parent="6bY6Thgxag4uqcN61ohY-1" source="QyCMkPuEmTv--lHedrac-3" edge="1">
          <mxGeometry relative="1" as="geometry">
            <mxPoint x="420" y="290" as="sourcePoint" />
            <mxPoint x="350" y="340" as="targetPoint" />
            <Array as="points">
              <mxPoint x="390" y="400" />
              <mxPoint x="390" y="340" />
            </Array>
          </mxGeometry>
        </mxCell>
        <mxCell id="QyCMkPuEmTv--lHedrac-5" value="" style="endArrow=block;endSize=16;endFill=0;html=1;rounded=0;exitX=0;exitY=0.5;exitDx=0;exitDy=0;entryX=1;entryY=0.5;entryDx=0;entryDy=0;labelBackgroundColor=#FFFFFF;strokeColor=#000000;" parent="6bY6Thgxag4uqcN61ohY-1" source="QyCMkPuEmTv--lHedrac-2" edge="1">
          <mxGeometry width="160" relative="1" as="geometry">
            <mxPoint x="385" y="364.31" as="sourcePoint" />
            <mxPoint x="350" y="340" as="targetPoint" />
          </mxGeometry>
        </mxCell>
        <mxCell id="QyCMkPuEmTv--lHedrac-6" style="edgeStyle=orthogonalEdgeStyle;rounded=0;orthogonalLoop=1;jettySize=auto;html=1;exitX=0;exitY=0.5;exitDx=0;exitDy=0;entryX=1;entryY=0.5;entryDx=0;entryDy=0;endArrow=block;endFill=0;endSize=16;" parent="6bY6Thgxag4uqcN61ohY-1" source="QyCMkPuEmTv--lHedrac-7" edge="1">
          <mxGeometry relative="1" as="geometry">
            <mxPoint x="350" y="340" as="targetPoint" />
            <Array as="points">
              <mxPoint x="390" y="461" />
              <mxPoint x="390" y="340" />
            </Array>
          </mxGeometry>
        </mxCell>
        <mxCell id="QyCMkPuEmTv--lHedrac-7" value="Restore Discarded Suggestion" style="ellipse;whiteSpace=wrap;html=1;fillColor=#d5e8d4;strokeColor=#82b366;" parent="6bY6Thgxag4uqcN61ohY-1" vertex="1">
          <mxGeometry x="410" y="436" width="120" height="50" as="geometry" />
        </mxCell>
        <mxCell id="q_ADCyYhzo-MKech34RM-0" value="" style="group" parent="6bY6Thgxag4uqcN61ohY-1" connectable="0" vertex="1">
          <mxGeometry x="690" y="200" width="83" height="106" as="geometry" />
        </mxCell>
        <mxCell id="q_ADCyYhzo-MKech34RM-1" value="Legend" style="text;html=1;strokeColor=none;fillColor=none;align=left;verticalAlign=middle;whiteSpace=wrap;rounded=0;fontStyle=1" parent="q_ADCyYhzo-MKech34RM-0" vertex="1">
          <mxGeometry width="60" height="30" as="geometry" />
        </mxCell>
        <mxCell id="q_ADCyYhzo-MKech34RM-2" value="" style="rounded=0;whiteSpace=wrap;html=1;fillColor=#d5e8d4;strokeColor=#82b366;" parent="q_ADCyYhzo-MKech34RM-0" vertex="1">
          <mxGeometry x="3" y="30" width="16" height="16" as="geometry" />
        </mxCell>
        <mxCell id="q_ADCyYhzo-MKech34RM-3" value="" style="rounded=0;whiteSpace=wrap;html=1;fillColor=#e1d5e7;strokeColor=#9673a6;" parent="q_ADCyYhzo-MKech34RM-0" vertex="1">
          <mxGeometry x="3" y="56" width="16" height="16" as="geometry" />
        </mxCell>
        <mxCell id="q_ADCyYhzo-MKech34RM-4" value="" style="rounded=0;whiteSpace=wrap;html=1;" parent="q_ADCyYhzo-MKech34RM-0" vertex="1">
          <mxGeometry x="3" y="83" width="16" height="16" as="geometry" />
        </mxCell>
        <mxCell id="q_ADCyYhzo-MKech34RM-5" value="Added" style="text;html=1;strokeColor=none;fillColor=none;align=left;verticalAlign=middle;whiteSpace=wrap;rounded=0;fontStyle=0" parent="q_ADCyYhzo-MKech34RM-0" vertex="1">
          <mxGeometry x="23" y="22" width="60" height="30" as="geometry" />
        </mxCell>
        <mxCell id="q_ADCyYhzo-MKech34RM-6" value="Modified" style="text;html=1;strokeColor=none;fillColor=none;align=left;verticalAlign=middle;whiteSpace=wrap;rounded=0;fontStyle=0" parent="q_ADCyYhzo-MKech34RM-0" vertex="1">
          <mxGeometry x="21.5" y="49" width="60" height="30" as="geometry" />
        </mxCell>
        <mxCell id="q_ADCyYhzo-MKech34RM-7" value="Existing" style="text;html=1;strokeColor=none;fillColor=none;align=left;verticalAlign=middle;whiteSpace=wrap;rounded=0;fontStyle=0" parent="q_ADCyYhzo-MKech34RM-0" vertex="1">
          <mxGeometry x="21" y="76" width="60" height="30" as="geometry" />
        </mxCell>
        <mxCell id="-XGBZrz4aAXidjLcT7Pb-0" value="Administrator" style="shape=umlActor;verticalLabelPosition=bottom;verticalAlign=top;html=1;outlineConnect=0;points=[[0,0.3333333333333333,0,0,0],[0,0.5,0,0,0],[0,1,0,0,0],[0.25,0.1,0,0,0],[0.5,0,0,0,0],[0.5,0.5,0,0,0],[0.75,0.1,0,0,0],[1,0.3333333333333333,0,0,0],[1,1,0,0,0]];" parent="6bY6Thgxag4uqcN61ohY-1" vertex="1">
          <mxGeometry x="710" y="422" width="30" height="60" as="geometry" />
        </mxCell>
        <mxCell id="-XGBZrz4aAXidjLcT7Pb-5" style="rounded=0;orthogonalLoop=1;jettySize=auto;html=1;exitX=1;exitY=0.5;exitDx=0;exitDy=0;endArrow=none;endFill=0;entryX=0;entryY=0.5;entryDx=0;entryDy=0;entryPerimeter=0;" parent="6bY6Thgxag4uqcN61ohY-1" source="-XGBZrz4aAXidjLcT7Pb-3" target="-XGBZrz4aAXidjLcT7Pb-0" edge="1">
          <mxGeometry relative="1" as="geometry" />
        </mxCell>
        <mxCell id="-XGBZrz4aAXidjLcT7Pb-3" value="Inspect Athena&lt;br&gt;Health" style="ellipse;whiteSpace=wrap;html=1;fillColor=#e1d5e7;strokeColor=#9673a6;" parent="6bY6Thgxag4uqcN61ohY-1" vertex="1">
          <mxGeometry x="535" y="377" width="130" height="50" as="geometry" />
        </mxCell>
        <mxCell id="-XGBZrz4aAXidjLcT7Pb-6" style="rounded=0;orthogonalLoop=1;jettySize=auto;html=1;exitX=1;exitY=0.5;exitDx=0;exitDy=0;endArrow=none;endFill=0;" parent="6bY6Thgxag4uqcN61ohY-1" source="-XGBZrz4aAXidjLcT7Pb-4" edge="1">
          <mxGeometry relative="1" as="geometry">
            <mxPoint x="710" y="452" as="targetPoint" />
          </mxGeometry>
        </mxCell>
        <mxCell id="-XGBZrz4aAXidjLcT7Pb-4" value="Select Suggestion Algorithm" style="ellipse;whiteSpace=wrap;html=1;fillColor=#d5e8d4;strokeColor=#82b366;" parent="6bY6Thgxag4uqcN61ohY-1" vertex="1">
          <mxGeometry x="535" y="437" width="130" height="50" as="geometry" />
        </mxCell>
      </root>
    </mxGraphModel>
  </diagram>
  <diagram name="artemis-presentation" id="VKzzUXCnGZ903ob0Aqm5">
    <mxGraphModel dx="1026" dy="685" grid="1" gridSize="10" guides="1" tooltips="1" connect="1" arrows="1" fold="1" page="1" pageScale="1" pageWidth="850" pageHeight="1100" math="0" shadow="0">
      <root>
        <mxCell id="e5jwP_a_76WiL1a_9zan-0" />
        <mxCell id="e5jwP_a_76WiL1a_9zan-1" parent="e5jwP_a_76WiL1a_9zan-0" />
        <mxCell id="e5jwP_a_76WiL1a_9zan-2" value="" style="rounded=0;whiteSpace=wrap;html=1;" parent="e5jwP_a_76WiL1a_9zan-1" vertex="1">
          <mxGeometry x="200" y="200" width="480" height="300" as="geometry" />
        </mxCell>
        <mxCell id="e5jwP_a_76WiL1a_9zan-3" value="Artemis" style="text;html=1;strokeColor=none;fillColor=none;align=center;verticalAlign=middle;whiteSpace=wrap;rounded=0;fontStyle=1" parent="e5jwP_a_76WiL1a_9zan-1" vertex="1">
          <mxGeometry x="410" y="210" width="60" height="30" as="geometry" />
        </mxCell>
        <mxCell id="e5jwP_a_76WiL1a_9zan-4" value="Tutor" style="shape=umlActor;verticalLabelPosition=bottom;verticalAlign=top;html=1;outlineConnect=0;" parent="e5jwP_a_76WiL1a_9zan-1" vertex="1">
          <mxGeometry x="140" y="310" width="30" height="60" as="geometry" />
        </mxCell>
        <mxCell id="e5jwP_a_76WiL1a_9zan-5" style="rounded=0;orthogonalLoop=1;jettySize=auto;html=1;exitX=0;exitY=0.5;exitDx=0;exitDy=0;endArrow=none;endFill=0;" parent="e5jwP_a_76WiL1a_9zan-1" source="e5jwP_a_76WiL1a_9zan-6" edge="1">
          <mxGeometry relative="1" as="geometry">
            <mxPoint x="180" y="340" as="targetPoint" />
          </mxGeometry>
        </mxCell>
        <mxCell id="e5jwP_a_76WiL1a_9zan-6" value="View Submission" style="ellipse;whiteSpace=wrap;html=1;" parent="e5jwP_a_76WiL1a_9zan-1" vertex="1">
          <mxGeometry x="220" y="255" width="130" height="50" as="geometry" />
        </mxCell>
        <mxCell id="e5jwP_a_76WiL1a_9zan-7" value="Review Suggestions" style="ellipse;whiteSpace=wrap;html=1;fillColor=#e1d5e7;strokeColor=#9673a6;" parent="e5jwP_a_76WiL1a_9zan-1" vertex="1">
          <mxGeometry x="220" y="315" width="130" height="50" as="geometry" />
        </mxCell>
        <mxCell id="e5jwP_a_76WiL1a_9zan-8" value="Submit Assessment" style="ellipse;whiteSpace=wrap;html=1;" parent="e5jwP_a_76WiL1a_9zan-1" vertex="1">
          <mxGeometry x="220" y="375" width="130" height="50" as="geometry" />
        </mxCell>
        <mxCell id="e5jwP_a_76WiL1a_9zan-9" style="rounded=0;orthogonalLoop=1;jettySize=auto;html=1;exitX=0;exitY=0.5;exitDx=0;exitDy=0;endArrow=none;endFill=0;" parent="e5jwP_a_76WiL1a_9zan-1" source="e5jwP_a_76WiL1a_9zan-7" edge="1">
          <mxGeometry relative="1" as="geometry">
            <mxPoint x="180" y="340" as="targetPoint" />
            <mxPoint x="230" y="295" as="sourcePoint" />
          </mxGeometry>
        </mxCell>
        <mxCell id="e5jwP_a_76WiL1a_9zan-10" style="rounded=0;orthogonalLoop=1;jettySize=auto;html=1;exitX=0;exitY=0.5;exitDx=0;exitDy=0;endArrow=none;endFill=0;" parent="e5jwP_a_76WiL1a_9zan-1" source="e5jwP_a_76WiL1a_9zan-8" edge="1">
          <mxGeometry relative="1" as="geometry">
            <mxPoint x="180" y="340" as="targetPoint" />
            <mxPoint x="230" y="355" as="sourcePoint" />
          </mxGeometry>
        </mxCell>
        <mxCell id="e5jwP_a_76WiL1a_9zan-11" value="Athena" style="shape=umlActor;verticalLabelPosition=bottom;verticalAlign=top;html=1;outlineConnect=0;" parent="e5jwP_a_76WiL1a_9zan-1" vertex="1">
          <mxGeometry x="710" y="310" width="30" height="60" as="geometry" />
        </mxCell>
        <mxCell id="e5jwP_a_76WiL1a_9zan-12" style="edgeStyle=none;rounded=0;orthogonalLoop=1;jettySize=auto;html=1;exitX=1;exitY=0.5;exitDx=0;exitDy=0;endArrow=none;endFill=0;" parent="e5jwP_a_76WiL1a_9zan-1" source="e5jwP_a_76WiL1a_9zan-13" target="e5jwP_a_76WiL1a_9zan-11" edge="1">
          <mxGeometry relative="1" as="geometry" />
        </mxCell>
        <mxCell id="e5jwP_a_76WiL1a_9zan-13" value="Learn from past feedback" style="ellipse;whiteSpace=wrap;html=1;fillColor=#e1d5e7;strokeColor=#9673a6;" parent="e5jwP_a_76WiL1a_9zan-1" vertex="1">
          <mxGeometry x="535" y="315" width="130" height="50" as="geometry" />
        </mxCell>
        <mxCell id="e5jwP_a_76WiL1a_9zan-14" style="edgeStyle=orthogonalEdgeStyle;rounded=0;orthogonalLoop=1;jettySize=auto;html=1;exitX=0;exitY=0.5;exitDx=0;exitDy=0;entryX=1;entryY=0.5;entryDx=0;entryDy=0;endArrow=block;endFill=0;endSize=16;" parent="e5jwP_a_76WiL1a_9zan-1" source="e5jwP_a_76WiL1a_9zan-15" edge="1">
          <mxGeometry relative="1" as="geometry">
            <mxPoint x="350" y="340" as="targetPoint" />
            <Array as="points">
              <mxPoint x="390" y="280" />
              <mxPoint x="390" y="340" />
            </Array>
          </mxGeometry>
        </mxCell>
        <mxCell id="e5jwP_a_76WiL1a_9zan-15" value="Accept Suggestion" style="ellipse;whiteSpace=wrap;html=1;fillColor=#e1d5e7;strokeColor=#9673a6;" parent="e5jwP_a_76WiL1a_9zan-1" vertex="1">
          <mxGeometry x="410" y="255" width="120" height="50" as="geometry" />
        </mxCell>
        <mxCell id="e5jwP_a_76WiL1a_9zan-16" value="Modify Suggestion" style="ellipse;whiteSpace=wrap;html=1;fillColor=#e1d5e7;strokeColor=#9673a6;" parent="e5jwP_a_76WiL1a_9zan-1" vertex="1">
          <mxGeometry x="410" y="315" width="120" height="50" as="geometry" />
        </mxCell>
        <mxCell id="e5jwP_a_76WiL1a_9zan-17" value="Discard Suggestion" style="ellipse;whiteSpace=wrap;html=1;fillColor=#e1d5e7;strokeColor=#9673a6;" parent="e5jwP_a_76WiL1a_9zan-1" vertex="1">
          <mxGeometry x="410" y="375" width="120" height="50" as="geometry" />
        </mxCell>
        <mxCell id="e5jwP_a_76WiL1a_9zan-18" style="edgeStyle=orthogonalEdgeStyle;rounded=0;orthogonalLoop=1;jettySize=auto;html=1;exitX=0;exitY=0.5;exitDx=0;exitDy=0;entryX=1;entryY=0.5;entryDx=0;entryDy=0;endArrow=block;endFill=0;endSize=16;" parent="e5jwP_a_76WiL1a_9zan-1" source="e5jwP_a_76WiL1a_9zan-17" edge="1">
          <mxGeometry relative="1" as="geometry">
            <mxPoint x="420" y="290" as="sourcePoint" />
            <mxPoint x="350" y="340" as="targetPoint" />
            <Array as="points">
              <mxPoint x="390" y="400" />
              <mxPoint x="390" y="340" />
            </Array>
          </mxGeometry>
        </mxCell>
        <mxCell id="e5jwP_a_76WiL1a_9zan-19" value="" style="endArrow=block;endSize=16;endFill=0;html=1;rounded=0;exitX=0;exitY=0.5;exitDx=0;exitDy=0;entryX=1;entryY=0.5;entryDx=0;entryDy=0;labelBackgroundColor=#FFFFFF;strokeColor=#000000;" parent="e5jwP_a_76WiL1a_9zan-1" source="e5jwP_a_76WiL1a_9zan-16" edge="1">
          <mxGeometry width="160" relative="1" as="geometry">
            <mxPoint x="385" y="364.31" as="sourcePoint" />
            <mxPoint x="350" y="340" as="targetPoint" />
          </mxGeometry>
        </mxCell>
        <mxCell id="e5jwP_a_76WiL1a_9zan-20" style="edgeStyle=orthogonalEdgeStyle;rounded=0;orthogonalLoop=1;jettySize=auto;html=1;exitX=0;exitY=0.5;exitDx=0;exitDy=0;entryX=1;entryY=0.5;entryDx=0;entryDy=0;endArrow=block;endFill=0;endSize=16;" parent="e5jwP_a_76WiL1a_9zan-1" source="e5jwP_a_76WiL1a_9zan-21" edge="1">
          <mxGeometry relative="1" as="geometry">
            <mxPoint x="350" y="340" as="targetPoint" />
            <Array as="points">
              <mxPoint x="390" y="461" />
              <mxPoint x="390" y="340" />
            </Array>
          </mxGeometry>
        </mxCell>
        <mxCell id="e5jwP_a_76WiL1a_9zan-21" value="Restore Discarded Suggestion" style="ellipse;whiteSpace=wrap;html=1;fillColor=#d5e8d4;strokeColor=#82b366;" parent="e5jwP_a_76WiL1a_9zan-1" vertex="1">
          <mxGeometry x="410" y="436" width="120" height="50" as="geometry" />
        </mxCell>
        <mxCell id="BaCnT21OV_7pyd0zjSaj-9" value="" style="group" parent="e5jwP_a_76WiL1a_9zan-1" connectable="0" vertex="1">
          <mxGeometry x="406" y="497" width="289.5" height="31" as="geometry" />
        </mxCell>
        <mxCell id="BaCnT21OV_7pyd0zjSaj-10" value="Legend:" style="text;html=1;strokeColor=none;fillColor=none;align=left;verticalAlign=middle;whiteSpace=wrap;rounded=0;fontStyle=1" parent="BaCnT21OV_7pyd0zjSaj-9" vertex="1">
          <mxGeometry width="60" height="30" as="geometry" />
        </mxCell>
        <mxCell id="BaCnT21OV_7pyd0zjSaj-11" value="" style="rounded=0;whiteSpace=wrap;html=1;fillColor=#d5e8d4;strokeColor=#82b366;" parent="BaCnT21OV_7pyd0zjSaj-9" vertex="1">
          <mxGeometry x="60" y="8" width="16" height="16" as="geometry" />
        </mxCell>
        <mxCell id="BaCnT21OV_7pyd0zjSaj-12" value="" style="rounded=0;whiteSpace=wrap;html=1;fillColor=#e1d5e7;strokeColor=#9673a6;" parent="BaCnT21OV_7pyd0zjSaj-9" vertex="1">
          <mxGeometry x="131" y="8" width="16" height="16" as="geometry" />
        </mxCell>
        <mxCell id="BaCnT21OV_7pyd0zjSaj-13" value="" style="rounded=0;whiteSpace=wrap;html=1;" parent="BaCnT21OV_7pyd0zjSaj-9" vertex="1">
          <mxGeometry x="209.5" y="8" width="16" height="16" as="geometry" />
        </mxCell>
        <mxCell id="BaCnT21OV_7pyd0zjSaj-14" value="Added" style="text;html=1;strokeColor=none;fillColor=none;align=left;verticalAlign=middle;whiteSpace=wrap;rounded=0;fontStyle=0" parent="BaCnT21OV_7pyd0zjSaj-9" vertex="1">
          <mxGeometry x="80" width="60" height="30" as="geometry" />
        </mxCell>
        <mxCell id="BaCnT21OV_7pyd0zjSaj-15" value="Modified" style="text;html=1;strokeColor=none;fillColor=none;align=left;verticalAlign=middle;whiteSpace=wrap;rounded=0;fontStyle=0" parent="BaCnT21OV_7pyd0zjSaj-9" vertex="1">
          <mxGeometry x="149.5" y="1" width="60" height="30" as="geometry" />
        </mxCell>
        <mxCell id="BaCnT21OV_7pyd0zjSaj-16" value="Existing" style="text;html=1;strokeColor=none;fillColor=none;align=left;verticalAlign=middle;whiteSpace=wrap;rounded=0;fontStyle=0" parent="BaCnT21OV_7pyd0zjSaj-9" vertex="1">
          <mxGeometry x="229.5" y="1" width="60" height="30" as="geometry" />
        </mxCell>
      </root>
    </mxGraphModel>
  </diagram>
  <diagram name="athena" id="2xga9ToQSgTMNpgdpcHS">
    <mxGraphModel dx="489" dy="326" grid="1" gridSize="10" guides="1" tooltips="1" connect="1" arrows="1" fold="1" page="1" pageScale="1" pageWidth="850" pageHeight="1100" math="0" shadow="0">
      <root>
        <mxCell id="OtXgMR-s5QyJ-jvGCxcB-0" />
        <mxCell id="OtXgMR-s5QyJ-jvGCxcB-1" parent="OtXgMR-s5QyJ-jvGCxcB-0" />
        <mxCell id="OtXgMR-s5QyJ-jvGCxcB-2" value="" style="rounded=0;whiteSpace=wrap;html=1;" parent="OtXgMR-s5QyJ-jvGCxcB-1" vertex="1">
          <mxGeometry x="200" y="250" width="210" height="240" as="geometry" />
        </mxCell>
        <mxCell id="OtXgMR-s5QyJ-jvGCxcB-3" value="Athena" style="text;html=1;strokeColor=none;fillColor=none;align=center;verticalAlign=middle;whiteSpace=wrap;rounded=0;fontStyle=1" parent="OtXgMR-s5QyJ-jvGCxcB-1" vertex="1">
          <mxGeometry x="275" y="250" width="60" height="30" as="geometry" />
        </mxCell>
        <mxCell id="OtXgMR-s5QyJ-jvGCxcB-17" value="Researcher" style="shape=umlActor;verticalLabelPosition=bottom;verticalAlign=top;html=1;outlineConnect=0;points=[[0,0.3333333333333333,0,0,0],[0,0.5,0,0,0],[0,1,0,0,0],[0.25,0.1,0,0,0],[0.5,0,0,0,0],[0.5,0.5,0,0,0],[0.75,0.1,0,0,0],[1,0.3333333333333333,0,0,0],[1,1,0,0,0]];" parent="OtXgMR-s5QyJ-jvGCxcB-1" vertex="1">
          <mxGeometry x="150" y="346.5" width="30" height="60" as="geometry" />
        </mxCell>
        <mxCell id="OtXgMR-s5QyJ-jvGCxcB-18" style="edgeStyle=none;rounded=0;orthogonalLoop=1;jettySize=auto;html=1;exitX=0;exitY=0.5;exitDx=0;exitDy=0;endArrow=none;endFill=0;" parent="OtXgMR-s5QyJ-jvGCxcB-1" source="OtXgMR-s5QyJ-jvGCxcB-19" edge="1">
          <mxGeometry relative="1" as="geometry">
            <mxPoint x="180" y="377" as="targetPoint" />
          </mxGeometry>
        </mxCell>
        <mxCell id="OtXgMR-s5QyJ-jvGCxcB-19" value="Change&lt;br&gt;Suggestion Algorithms" style="ellipse;whiteSpace=wrap;html=1;fillColor=#d5e8d4;strokeColor=#82b366;" parent="OtXgMR-s5QyJ-jvGCxcB-1" vertex="1">
          <mxGeometry x="230" y="294" width="170" height="50" as="geometry" />
        </mxCell>
        <mxCell id="3iHf4RruntUXMAyih8vR-6" value="Inspect&lt;br&gt;Usage Statistics" style="ellipse;whiteSpace=wrap;html=1;fillColor=#d5e8d4;strokeColor=#82b366;" parent="OtXgMR-s5QyJ-jvGCxcB-1" vertex="1">
          <mxGeometry x="230" y="352" width="170" height="50" as="geometry" />
        </mxCell>
        <mxCell id="3iHf4RruntUXMAyih8vR-7" style="edgeStyle=none;rounded=0;orthogonalLoop=1;jettySize=auto;html=1;exitX=0;exitY=0.5;exitDx=0;exitDy=0;endArrow=none;endFill=0;" parent="OtXgMR-s5QyJ-jvGCxcB-1" source="3iHf4RruntUXMAyih8vR-6" edge="1">
          <mxGeometry relative="1" as="geometry">
            <mxPoint x="530" y="340" as="sourcePoint" />
            <mxPoint x="180" y="377" as="targetPoint" />
          </mxGeometry>
        </mxCell>
        <mxCell id="3iHf4RruntUXMAyih8vR-8" value="Test Suggestion Generation Independently of LMS" style="ellipse;whiteSpace=wrap;html=1;fillColor=#d5e8d4;strokeColor=#82b366;" parent="OtXgMR-s5QyJ-jvGCxcB-1" vertex="1">
          <mxGeometry x="230" y="410" width="170" height="50" as="geometry" />
        </mxCell>
        <mxCell id="3iHf4RruntUXMAyih8vR-9" style="edgeStyle=none;rounded=0;orthogonalLoop=1;jettySize=auto;html=1;exitX=0;exitY=0.5;exitDx=0;exitDy=0;endArrow=none;endFill=0;" parent="OtXgMR-s5QyJ-jvGCxcB-1" source="3iHf4RruntUXMAyih8vR-8" edge="1">
          <mxGeometry relative="1" as="geometry">
            <mxPoint x="530" y="395" as="sourcePoint" />
            <mxPoint x="180" y="377" as="targetPoint" />
          </mxGeometry>
        </mxCell>
        <mxCell id="RAkuceSAx-I3745TY3T5-10" value="Legend:" style="text;html=1;strokeColor=none;fillColor=none;align=left;verticalAlign=middle;whiteSpace=wrap;rounded=0;fontStyle=1" parent="OtXgMR-s5QyJ-jvGCxcB-1" vertex="1">
          <mxGeometry x="293" y="488" width="60" height="30" as="geometry" />
        </mxCell>
        <mxCell id="RAkuceSAx-I3745TY3T5-11" value="" style="rounded=0;whiteSpace=wrap;html=1;fillColor=#d5e8d4;strokeColor=#82b366;" parent="OtXgMR-s5QyJ-jvGCxcB-1" vertex="1">
          <mxGeometry x="353" y="496" width="16" height="16" as="geometry" />
        </mxCell>
        <mxCell id="RAkuceSAx-I3745TY3T5-14" value="Added" style="text;html=1;strokeColor=none;fillColor=none;align=left;verticalAlign=middle;whiteSpace=wrap;rounded=0;fontStyle=0" parent="OtXgMR-s5QyJ-jvGCxcB-1" vertex="1">
          <mxGeometry x="372" y="488" width="38" height="30" as="geometry" />
        </mxCell>
      </root>
    </mxGraphModel>
  </diagram>
</mxfile>
